<?xml version="1.0" encoding="UTF-8" standalone="no"?>
<svg
   xmlns:dc="http://purl.org/dc/elements/1.1/"
   xmlns:cc="http://creativecommons.org/ns#"
   xmlns:rdf="http://www.w3.org/1999/02/22-rdf-syntax-ns#"
   xmlns:svg="http://www.w3.org/2000/svg"
   xmlns="http://www.w3.org/2000/svg"
   xmlns:sodipodi="http://sodipodi.sourceforge.net/DTD/sodipodi-0.dtd"
   xmlns:inkscape="http://www.inkscape.org/namespaces/inkscape"
   id="Camada_1"
   data-name="Camada 1"
   viewBox="0 0 632.68 267.94"
   version="1.1"
   sodipodi:docname="mobileX-4.svg"
   inkscape:export-filename="/Users/luizcarvalho/Projects/Grappe/mobilex/logo.png"
   inkscape:export-xdpi="96"
   inkscape:export-ydpi="96"
   inkscape:version="1.0.2 (e86c8708, 2021-01-15)">
  <metadata
     id="metadata35">
    <rdf:RDF>
      <cc:Work
         rdf:about="">
        <dc:format>image/svg+xml</dc:format>
        <dc:type
           rdf:resource="http://purl.org/dc/dcmitype/StillImage" />
      </cc:Work>
    </rdf:RDF>
  </metadata>
  <sodipodi:namedview
     pagecolor="#ffffff"
     bordercolor="#666666"
     borderopacity="1"
     objecttolerance="10"
     gridtolerance="10"
     guidetolerance="10"
     inkscape:pageopacity="0"
     inkscape:pageshadow="2"
     inkscape:window-width="1396"
     inkscape:window-height="847"
     id="namedview33"
     showgrid="false"
     inkscape:zoom="1.239173"
     inkscape:cx="316.34"
     inkscape:cy="133.97"
     inkscape:window-x="0"
     inkscape:window-y="25"
     inkscape:window-maximized="1"
     inkscape:current-layer="Camada_1"
     inkscape:document-rotation="0" />
  <defs
     id="defs12">
    <style
       id="style10">.cls-1{fill:#fff;}</style>
  </defs>
  <path
     class="cls-1"
     d="M435.15,14.86C449.57,25.54,462.47,38,476,49.72c27.32,23.66,54.45,47.55,81.67,71.32,9.19,8,9.35,15.38.09,23.22-9.52,8.07-19.08,16.14-28.41,24.39q-17.25,15.24-34.6,30.4c-18.14,15.85-36.21,31.78-54.35,47.62a53,53,0,0,1-5.39,3.65h-6.75c-6.61-3.34-9-8.62-8.85-16.05.4-16.08.23-32.16.08-48.24a8.14,8.14,0,0,1,3.19-7q23.58-20.31,46.95-40.83c5.56-4.86,5.54-6.37-.15-11.35Q446.26,106.54,423,86.29a8.63,8.63,0,0,1-3.37-7.36c.18-15.92.43-31.85,0-47.76-.21-7.54,2-13,8.83-16.31Z"
     id="path14"
     inkscape:export-xdpi="96"
     inkscape:export-ydpi="96" />
  <path
     class="cls-1"
     d="M616.45,211.83A25.82,25.82,0,0,0,614,214c-4,4.42-7.52,5.07-12,1.47-18-14.48-36-29.12-54-43.62-2.15-1.73-1.84-2.65.08-4.28,8.7-7.39,17-15.22,26-22.29a15.93,15.93,0,0,0,.2-25c-8.93-7.09-17.23-15-25.93-22.34-2.12-1.79-2.42-2.7-.07-4.58,17.83-14.23,35.52-28.65,53.35-42.89,5.39-4.31,8.66-3.48,14.92,3.09l0,62.72c-5.27,4.43-10.57,8.82-15.79,13.3-2.29,2-2.28,4.19,0,6.16,5.22,4.49,10.51,8.9,15.77,13.35Z"
     id="path16"
     inkscape:export-xdpi="96"
     inkscape:export-ydpi="96" />
  <path
     class="cls-1"
     d="M8.56,119.79c4.78-5.1,7.08-5.27,11.69-.44,1.05,1.1,1.59.94,2.76.49,16.77-6.46,23.76-5.21,37.3,6.6C68.37,117.8,78,113.89,89.83,117a28.44,28.44,0,0,1,20.92,26c.28,7.87.14,15.75,0,23.63,0,4.19-2.82,7.07-6.36,7s-6.1-3-6.14-7.24c-.08-6.91,0-13.82,0-20.73-.09-9.82-6.88-17.09-15.86-17.1s-15.84,7.25-15.94,17c-.08,6.91,0,13.83,0,20.74,0,4.31-2.53,7.15-6.09,7.27S54,170.7,53.9,166.16c-.06-6.91.06-13.82,0-20.73-.11-9.48-7.17-16.8-16.18-16.91-9.19-.12-16.46,7.29-16.59,17q-.11,9.41,0,18.81c0,3.48,0,6.81-3.78,8.59s-6.25-.8-8.8-2.94Z"
     id="path18"
     inkscape:export-xdpi="96"
     inkscape:export-ydpi="96" />
  <path
     class="cls-1"
     d="M208.32,123.23c9.65-6.6,19.37-8.78,30-6.07,16.14,4.13,27.26,20.77,24.8,37.05a34,34,0,0,1-36,29.34c-16.67-.93-31-15.39-31.24-32.23-.3-19.12-.1-38.25,0-57.37,0-4.54,2.73-7.49,6.46-7.36,3.55.12,6,3,6.05,7.28C208.38,103.34,208.32,112.81,208.32,123.23ZM229.44,171a21.21,21.21,0,1,0-21.12-21.29A21.43,21.43,0,0,0,229.44,171Z"
     id="path20"
     inkscape:export-xdpi="96"
     inkscape:export-ydpi="96" />
  <path
     class="cls-1"
     d="M345.14,161.16c3.91,6.25,9.55,9.23,16.57,9.93,5.23.52,7.9,2.78,7.68,6.64-.24,4-3.48,6.21-8.83,5.9-16.77-.94-30.8-15.14-31.6-32-.85-17.87,11.42-32.57,29.43-35.27,16.56-2.48,33.07,8.22,37.42,24.24,2.79,10.27-4.18,19.75-14.83,19.89-10.28.14-20.56,0-30.84,0C348.61,160.56,347,160.11,345.14,161.16ZM341.79,148c12.86,0,25.68.07,38.51,0,4.22,0,4.05-2.64,2.95-5.67-3.18-8.76-13-14.63-22.71-13.47A20.88,20.88,0,0,0,341.79,148Z"
     id="path22"
     inkscape:export-xdpi="96"
     inkscape:export-ydpi="96" />
  <path
     class="cls-1"
     d="M118.55,149.5A33.78,33.78,0,1,1,152,183.56,33.61,33.61,0,0,1,118.55,149.5Zm55,.4A21.21,21.21,0,1,0,152.2,171,21.38,21.38,0,0,0,173.53,149.9Z"
     id="path24"
     inkscape:export-xdpi="96"
     inkscape:export-ydpi="96" />
  <path
     class="cls-1"
     d="M312.53,123.65c0,9.47,0,18.94,0,28.4,0,6.22,1.78,8.32,7.86,9.4,3.92.69,6.14,2.83,5.79,6.87s-3.06,5.71-7,5.68c-9.55-.08-18.88-8.39-19.07-18.25-.39-20.7-.17-41.41-.09-62.11,0-4,2.28-6.46,6.29-6.4s6.14,2.61,6.18,6.55C312.61,103.74,312.54,113.69,312.53,123.65Z"
     id="path26"
     inkscape:export-xdpi="96"
     inkscape:export-ydpi="96" />
  <path
     class="cls-1"
     d="M273.92,144.09c0-7.06,0-14.12,0-21.18,0-4.15,1.72-6.84,6.07-7.13,4-.26,6.46,2.46,6.47,7.17.05,14.28,0,28.56,0,42.85,0,4.12-1.77,6.83-6.06,7.17-3.88.32-6.42-2.54-6.47-7.22C273.85,158.53,273.91,151.31,273.92,144.09Z"
     id="path28"
     inkscape:export-xdpi="96"
     inkscape:export-ydpi="96" />
  <path
     class="cls-1"
     d="M280.3,101.62a9.08,9.08,0,0,1-9.08-9.18,9.36,9.36,0,0,1,8.88-9,9.21,9.21,0,0,1,9.29,9A9.06,9.06,0,0,1,280.3,101.62Z"
     id="path30"
     inkscape:export-xdpi="96"
     inkscape:export-ydpi="96" />
</svg>
